<svg width="20" height="20" viewBox="0 0 20 20" fill="none" xmlns="http://www.w3.org/2000/svg">
<path d="M18.4587 7.161L10.1389 3.583C10.0888 3.56131 10.0348 3.55009 9.98018 3.55C9.92618 3.55 9.87228 3.561 9.82108 3.583L1.50138 7.161C1.32598 7.2361 1.20978 7.4277 1.20978 7.6413C1.20978 7.8553 1.32598 8.0464 1.50138 8.1219L9.82098 11.7C9.87108 11.7219 9.92518 11.7333 9.97988 11.7333C10.0346 11.7333 10.0887 11.7219 10.1388 11.7L16.6073 8.9181V11.7641C16.2606 11.9477 16.0197 12.3471 16.0197 12.8115C16.0197 13.276 16.2606 13.6753 16.6073 13.8589V14.8517H17.4593V13.8591C17.8062 13.6755 18.0473 13.2761 18.0473 12.8115C18.0473 12.3469 17.8062 11.9475 17.4593 11.7639V8.5517L18.4586 8.1219C18.6339 8.0464 18.7501 7.8552 18.7501 7.6413C18.7501 7.4277 18.6339 7.2361 18.4586 7.161H18.4587ZM9.98018 12.4181C9.8523 12.418 9.7258 12.3917 9.60848 12.3408L4.42198 10.11V13.1901C4.42198 15.7128 8.20438 16.4701 9.38698 16.4701H10.5724C11.4583 16.4701 15.5378 15.7128 15.5378 13.1901V10.1101L10.3511 12.3408C10.234 12.3917 10.1077 12.418 9.98008 12.4181H9.98018Z" fill="#028A0F"/>
</svg>
